<svg enable-background="new 0 0 1024 1024" viewBox="0 0 1024 1024" xmlns="http://www.w3.org/2000/svg"><path d="m447.8 782.3c-13.6-.5-27.2-8-38.9-19.4-14.3-14-28.4-28.2-42.5-42.4-31.2-31.3-62.4-62.7-93.6-94-14.2-14.3-28.4-28.6-42.8-42.6-11.5-11.1-11.2-33.3.1-44.3 10.9-10.5 21.5-21.4 32.2-32.2 4.8-4.8 9.5-9.7 14.4-14.4 10.1-9.7 32-9.5 42.8 1.3 26.1 26.2 52.4 52.3 78.5 78.4l34.9 34.9c4 4 4.4 4 7.5-.6 8-11.8 15.9-23.7 24-35.6 19.7-29 39.5-58 59.2-87.1 18.1-26.7 36.2-53.4 54.3-80.1 13-19.1 25.9-38.1 38.9-57.2 12-17.5 24.1-35 36-52.5 11.7-17.2 23.1-34.5 34.9-51.7 4.7-6.8 8.7-14.3 17.2-17.5 10.7-4 21.2-4.5 30.9 1.8 18.3 11.8 36.1 24.3 54.1 36.4 9.6 6.5 15.6 24.1 10.5 35-4.2 8.9-9.9 17.1-15.4 25.3-14 21.1-28.4 41.9-42.5 63-14.5 21.5-28.7 43.1-43.2 64.5-15.9 23.6-32 47.1-48 70.6-20.5 30.1-41.1 60-61.5 90.1-16.6 24.3-32.9 48.8-49.5 73.2-14.4 21.2-29 42.2-43.4 63.5-5.5 8.2-10.7 16.7-18.5 23.1-7.9 6.5-16.8 10.7-30.6 10.5z"/></svg>