<?xml version="1.0" encoding="UTF-8" standalone="no"?>
<!DOCTYPE svg PUBLIC "-//W3C//DTD SVG 1.1//EN" "http://www.w3.org/Graphics/SVG/1.1/DTD/svg11.dtd">
<svg width="100%" height="100%" viewBox="0 0 24 24" version="1.1" xmlns="http://www.w3.org/2000/svg" xmlns:xlink="http://www.w3.org/1999/xlink" xml:space="preserve" xmlns:serif="http://www.serif.com/" style="fill-rule:evenodd;clip-rule:evenodd;stroke-linejoin:round;stroke-miterlimit:2;">
    <path d="M17.813,16.084C15.453,16.084 13.439,17.519 12.626,19.542C13.439,21.565 15.453,23 17.813,23C20.173,23 22.187,21.565 23,19.542C22.187,17.519 20.173,16.084 17.813,16.084ZM4,2.769L4.769,2L13.568,2L13.568,2.01L14,2.154L19.231,7.538L19.385,8.154L19.385,14.841C18.887,14.742 18.373,14.689 17.846,14.687L17.846,9.692L11.692,9.692L11.692,3.538L5.538,3.538L5.538,20.462L10.974,20.462C11.293,21.021 11.681,21.538 12.127,22L4.769,22L4,21.231L4,2.769ZM17.813,21.703C16.628,21.703 15.652,20.727 15.652,19.542C15.652,18.357 16.628,17.381 17.813,17.381C18.998,17.381 19.974,18.357 19.974,19.542C19.974,20.727 18.998,21.703 17.813,21.703ZM17.813,18.677C18.297,18.677 18.677,19.058 18.677,19.542C18.677,20.026 18.297,20.406 17.813,20.406C17.329,20.406 16.948,20.026 16.948,19.542C16.948,19.058 17.329,18.677 17.813,18.677ZM13.231,3.538L13.231,8.154L17.697,8.154L13.231,3.538Z" style="fill:rgb(66,66,66);fill-rule:nonzero;"/>
</svg>
