<?xml version="1.0" encoding="UTF-8" standalone="no"?>
<!DOCTYPE svg PUBLIC "-//W3C//DTD SVG 1.1//EN" "http://www.w3.org/Graphics/SVG/1.1/DTD/svg11.dtd">
<svg width="100%" height="100%" viewBox="0 0 24 24" version="1.1" xmlns="http://www.w3.org/2000/svg" xmlns:xlink="http://www.w3.org/1999/xlink" xml:space="preserve" xmlns:serif="http://www.serif.com/" style="fill-rule:evenodd;clip-rule:evenodd;stroke-linejoin:round;stroke-miterlimit:2;">
    <path d="M3.54,3.276L4.913,3.31L4.913,21.102L18.45,21.102L18.45,22.475L4.227,22.475L3.54,21.788L3.54,3.276ZM6.722,2.212L7.409,1.525L15.266,1.525L15.266,1.533L15.652,1.662L20.323,6.471L20.46,7.02L20.46,18.698L19.773,19.385L7.409,19.385L6.722,18.698L6.722,2.212ZM13.591,2.899L8.095,2.899L8.095,18.011L19.086,18.011L19.086,8.394L13.591,8.394L13.591,2.899ZM14.965,2.899L14.965,7.02L18.953,7.02L14.965,2.899Z" style="fill:rgb(66,66,66);"/>
</svg>
