<?xml version="1.0" encoding="UTF-8" standalone="no"?>
<!DOCTYPE svg PUBLIC "-//W3C//DTD SVG 1.1//EN" "http://www.w3.org/Graphics/SVG/1.1/DTD/svg11.dtd">
<svg width="100%" height="100%" viewBox="0 0 24 24" version="1.1" xmlns="http://www.w3.org/2000/svg" xmlns:xlink="http://www.w3.org/1999/xlink" xml:space="preserve" xmlns:serif="http://www.serif.com/" style="fill-rule:evenodd;clip-rule:evenodd;stroke-linejoin:round;stroke-miterlimit:2;">
    <g transform="matrix(1.37384,0,0,1.37384,-0.147562,-1.22275)">
        <path d="M5,6.5L5,2.5L5.5,2L11.219,2L11.219,2.006L11.5,2.1L14.9,5.6L15,6L15,14.5L14.5,15L5.5,15L5,14.5L5,6.5ZM6,9.673L6,14L14,14L14,7L10,7L10,3L6,3L6,9.673ZM11,3L11,6L13.903,6L11,3Z" style="fill:rgb(197,197,197);"/>
    </g>
    <g transform="matrix(0.892994,0,0,0.892994,-1.81795,4.6152)">
        <path d="M6,-1.5L7.538,-1.462L7.538,18.462L22.697,18.462L22.697,20L6.769,20L6,19.231L6,6.923L6,-1.5Z" style="fill:rgb(197,197,197);"/>
    </g>
</svg>
