<?xml version="1.0" encoding="UTF-8" standalone="no"?>
<!DOCTYPE svg PUBLIC "-//W3C//DTD SVG 1.1//EN" "http://www.w3.org/Graphics/SVG/1.1/DTD/svg11.dtd">
<svg width="100%" height="100%" viewBox="0 0 24 24" version="1.1" xmlns="http://www.w3.org/2000/svg" xmlns:xlink="http://www.w3.org/1999/xlink" xml:space="preserve" xmlns:serif="http://www.serif.com/" style="fill-rule:evenodd;clip-rule:evenodd;stroke-linejoin:round;stroke-miterlimit:2;">
    <g transform="matrix(0.864509,0,0,0.864509,3.11629,3.11629)">
        <path d="M17,18C17.56,18 18,18.44 18,19C18,19.56 17.56,20 17,20C16.44,20 16,19.56 16,19C16,18.44 16.44,18 17,18M17,15C14.27,15 11.94,16.66 11,19C11.94,21.34 14.27,23 17,23C19.73,23 22.06,21.34 23,19C22.06,16.66 19.73,15 17,15M17,21.5C15.629,21.5 14.5,20.371 14.5,19C14.5,17.629 15.629,16.5 17,16.5C18.371,16.5 19.5,17.629 19.5,19C19.5,20.371 18.371,21.5 17,21.5" style="fill:rgb(197,197,197);fill-rule:nonzero;"/>
    </g>
    <path d="M12.127,22L4.769,22L4,21.231L4,8.923L4,2.769L4.769,2L13.568,2L13.568,2.01L14,2.154L19.231,7.538L19.385,8.154L19.385,14.841C18.887,14.742 18.373,14.689 17.846,14.687L17.846,9.692L11.692,9.692L11.692,3.538L5.538,3.538L5.538,20.462L10.974,20.462C11.293,21.021 11.681,21.538 12.127,22ZM13.231,3.538L13.231,8.154L17.697,8.154L13.231,3.538Z" style="fill:rgb(197,197,197);"/>
</svg>
