<svg width="16" height="16" viewBox="0 0 16 16" fill="none" xmlns="http://www.w3.org/2000/svg">
<path d="M9.29313 8.50938L9.2 8.63977V8.8V8.9V14.3871C9.14423 14.337 9.09465 14.2875 9.05355 14.2464L9.03752 14.2304L9.02009 14.2159C8.70208 13.9509 8.33625 13.69 7.96173 13.4279C7.89863 13.3837 7.83523 13.3395 7.77157 13.295C7.46155 13.0787 7.14544 12.8581 6.82852 12.6213C6.81796 12.6107 6.80863 12.6012 6.8 12.5922V12.5875V12.5805V12.5734V12.5664V12.5594V12.5523V12.5453V12.5383V12.5312V12.5242V12.5172V12.5102V12.5031V12.4961V12.4891V12.482V12.475V12.468V12.4609V12.4539V12.4469V12.4398V12.4328V12.4258V12.4187V12.4117V12.4047V12.3977V12.3906V12.3836V12.3766V12.3695V12.3625V12.3555V12.3484V12.3414V12.3344V12.3273V12.3203V12.3133V12.3062V12.2992V12.2922V12.2852V12.2781V12.2711V12.2641V12.257V12.25V12.243V12.2359V12.2289V12.2219V12.2148V12.2078V12.2008V12.1937V12.1867V12.1797V12.1727V12.1656V12.1586V12.1516V12.1445V12.1375V12.1305V12.1234V12.1164V12.1094V12.1023V12.0953V12.0883V12.0812V12.0742V12.0672V12.0602V12.0531V12.0461V12.0391V12.032V12.025V12.018V12.0109V12.0039V11.9969V11.9898V11.9828V11.9758V11.9687V11.9617V11.9547V11.9477V11.9406V11.9336V11.9266V11.9195V11.9125V11.9055V11.8984V11.8914V11.8844V11.8773V11.8703V11.8633V11.8562V11.8492V11.8422V11.8352V11.8281V11.8211V11.8141V11.807V11.8V11.793V11.7859V11.7789V11.7719V11.7648V11.7578V11.7508V11.7437V11.7367V11.7297V11.7227V11.7156V11.7086V11.7016V11.6945V11.6875V11.6805V11.6734V11.6664V11.6594V11.6523V11.6453V11.6383V11.6312V11.6242V11.6172V11.6102V11.6031V11.5961V11.5891V11.582V11.575V11.568V11.5609V11.5539V11.5469V11.5398V11.5328V11.5258V11.5187V11.5117V11.5047V11.4977V11.4906V11.4836V11.4766V11.4695V11.4625V11.4555V11.4484V11.4414V11.4344V11.4273V11.4203V11.4133V11.4062V11.3992V11.3922V11.3852V11.3781V11.3711V11.3641V11.357V11.35V11.343V11.3359V11.3289V11.3219V11.3148V11.3078V11.3008V11.2937V11.2867V11.2797V11.2727V11.2656V11.2586V11.2516V11.2445V11.2375V11.2305V11.2234V11.2164V11.2094V11.2023V11.1953V11.1883V11.1812V11.1742V11.1672V11.1602V11.1531V11.1461V11.1391V11.132V11.125V11.118V11.1109V11.1039V11.0969V11.0898V11.0828V11.0758V11.0687V11.0617V11.0547V11.0477V11.0406V11.0336V11.0266V11.0195V11.0125V11.0055V10.9984V10.9914V10.9844V10.9773V10.9703V10.9633V10.9562V10.9492V10.9422V10.9352V10.9281V10.9211V10.9141V10.907V10.9V10.893V10.8859V10.8789V10.8719V10.8648V10.8578V10.8508V10.8437V10.8367V10.8297V10.8227V10.8156V10.8086V10.8016V10.7945V10.7875V10.7805V10.7734V10.7664V10.7594V10.7523V10.7453V10.7383V10.7312V10.7242V10.7172V10.7102V10.7031V10.6961V10.6891V10.682V10.675V10.668V10.6609V10.6539V10.6469V10.6398V10.6328V10.6258V10.6187V10.6117V10.6047V10.5977V10.5906V10.5836V10.5766V10.5695V10.5625V10.5555V10.5484V10.5414V10.5344V10.5273V10.5203V10.5133V10.5062V10.4992V10.4922V10.4852V10.4781V10.4711V10.4641V10.457V10.45V10.443V10.4359V10.4289V10.4219V10.4148V10.4078V10.4008V10.3937V10.3867V10.3797V10.3727V10.3656V10.3586V10.3516V10.3445V10.3375V10.3305V10.3234V10.3164V10.3094V10.3023V10.2953V10.2883V10.2812V10.2742V10.2672V10.2602V10.2531V10.2461V10.2391V10.232V10.225V10.218V10.2109V10.2039V10.1969V10.1898V10.1828V10.1758V10.1687V10.1617V10.1547V10.1477V10.1406V10.1336V10.1266V10.1195V10.1125V10.1055V10.0984V10.0914V10.0844V10.0773V10.0703V10.0633V10.0562V10.0492V10.0422V10.0352V10.0281V10.0211V10.0141V10.007V10V9.99297V9.98594V9.9789V9.97187V9.96484V9.95781V9.95078V9.94375V9.93672V9.92969V9.92266V9.91562V9.90859V9.90156V9.89453V9.8875V9.88047V9.87344V9.86641V9.85937V9.85234V9.84531V9.83828V9.83125V9.82422V9.81719V9.81015V9.80312V9.79609V9.78906V9.78203V9.775V9.76797V9.76094V9.75391V9.74687V9.73984V9.73281V9.72578V9.71875V9.71172V9.70469V9.69766V9.69062V9.68359V9.67656V9.66953V9.6625V9.65547V9.64844V9.64141V9.63437V9.62734V9.62031V9.61328V9.60625V9.59922V9.59219V9.58516V9.57812V9.57109V9.56406V9.55703V9.55V9.54297V9.53594V9.52891V9.52187V9.51484V9.50781V9.50078V9.49375V9.48672V9.47969V9.47266V9.46562V9.45859V9.45156V9.44453V9.4375V9.43047V9.42344V9.41641V9.40937V9.40234V9.39531V9.38828V9.38125V9.37422V9.36719V9.36016V9.35312V9.34609V9.33906V9.33203V9.325V9.31797V9.31094V9.30391V9.29687V9.28984V9.28281V9.27578V9.26875V9.26172V9.25469V9.24766V9.24062V9.23359V9.22656V9.21953V9.2125V9.20547V9.19844V9.19141V9.18437V9.17734V9.17031V9.16328V9.15625V9.14922V9.14219V9.13516V9.12812V9.12109V9.11406V9.10703V9.1V8.9V8.72933L6.69564 8.59427C5.62383 7.20723 4.59738 5.78776 3.55504 4.34632C3.01746 3.60291 2.47566 2.85366 1.92123 2.1H2.8H8H13.9632C13.9324 2.14076 13.9019 2.18614 13.8741 2.23595C13.1327 3.2734 12.3666 4.31142 11.5977 5.35307L11.5964 5.35479C10.8223 6.40367 10.0454 7.45624 9.29313 8.50938Z" stroke="#424242"/>
</svg>
